<svg width="32" height="33" viewBox="0 0 32 33" fill="none" xmlns="http://www.w3.org/2000/svg">
<g filter="url(#filter0_d_44_1838)">
<path d="M16 1.58392C12.873 1.55215 9.8612 2.76325 7.62667 4.95106C5.39213 7.13887 4.11767 10.1244 4.08337 13.2514C4.09542 15.7227 4.8904 18.1266 6.35411 20.1177C7.81782 22.1089 9.87496 23.585 12.23 24.3339C12.8259 24.4423 13.0425 24.0848 13.0425 23.7706C13.0425 23.4564 13.0425 22.7631 13.0425 21.7881C9.72754 22.4923 9.02337 20.2281 9.02337 20.2281C8.8027 19.5173 8.33354 18.9097 7.70171 18.5164C6.61837 17.8014 7.78837 17.8123 7.78837 17.8123C8.16283 17.8623 8.52109 17.9965 8.83629 18.2048C9.15149 18.413 9.41545 18.6899 9.60837 19.0148C9.94457 19.5977 10.4962 20.0254 11.1446 20.2057C11.7929 20.386 12.4861 20.3046 13.075 19.9789C13.1356 19.3857 13.4043 18.833 13.8334 18.4189C11.19 18.1264 8.41671 17.1298 8.41671 12.6556C8.39307 11.4885 8.8243 10.358 9.61921 9.50309C9.25719 8.50108 9.29993 7.39743 9.73837 6.42642C9.73837 6.42642 10.7459 6.11226 12.9884 7.61809C14.9404 7.09791 16.9947 7.09791 18.9467 7.61809C21.2217 6.11226 22.1967 6.42642 22.1967 6.42642C22.6351 7.39743 22.6779 8.50108 22.3159 9.50309C23.1292 10.3423 23.5839 11.4652 23.5834 12.6339C23.5834 17.1189 20.7884 18.1048 18.1667 18.3973C18.4538 18.676 18.6755 19.0148 18.816 19.3894C18.9565 19.7641 19.0122 20.1652 18.9792 20.5639V23.7598C18.9792 23.7598 19.1959 24.4423 19.7917 24.3231C22.1401 23.5695 24.1903 22.0931 25.6495 20.1047C27.1087 18.1164 27.9022 15.7177 27.9167 13.2514C27.8824 10.1244 26.6079 7.13887 24.3734 4.95106C22.1389 2.76325 19.1271 1.55215 16 1.58392Z" fill="#6E7681"/>
</g>
<defs>
<filter id="filter0_d_44_1838" x="-1" y="0.5" width="34" height="34" filterUnits="userSpaceOnUse" color-interpolation-filters="sRGB">
<feFlood flood-opacity="0" result="BackgroundImageFix"/>
<feColorMatrix in="SourceAlpha" type="matrix" values="0 0 0 0 0 0 0 0 0 0 0 0 0 0 0 0 0 0 127 0" result="hardAlpha"/>
<feOffset dy="4"/>
<feGaussianBlur stdDeviation="2"/>
<feComposite in2="hardAlpha" operator="out"/>
<feColorMatrix type="matrix" values="0 0 0 0 0 0 0 0 0 0 0 0 0 0 0 0 0 0 0.25 0"/>
<feBlend mode="normal" in2="BackgroundImageFix" result="effect1_dropShadow_44_1838"/>
<feBlend mode="normal" in="SourceGraphic" in2="effect1_dropShadow_44_1838" result="shape"/>
</filter>
</defs>
</svg>
