<svg width="22" height="23" viewBox="0 0 22 23" fill="none" xmlns="http://www.w3.org/2000/svg">
<g filter="url(#filter0_d_403_518)">
<path d="M11.5664 2.61962C11.4162 2.47901 11.2124 2.40002 11 2.40002C10.7875 2.40002 10.5838 2.47901 10.4335 2.61962L4.82489 7.86969C4.67894 8.01114 4.59818 8.20059 4.60001 8.39724C4.60183 8.59389 4.6861 8.78201 4.83465 8.92107C4.98321 9.06012 5.18416 9.139 5.39424 9.14071C5.60432 9.14242 5.80672 9.06682 5.95783 8.9302L6.19259 8.71045V13.65C6.19259 13.8489 6.27701 14.0397 6.42727 14.1804C6.57753 14.321 6.78132 14.4 6.99382 14.4H8.59628C8.80878 14.4 9.01258 14.321 9.16284 14.1804C9.3131 14.0397 9.39751 13.8489 9.39751 13.65V12.15C9.39751 11.9511 9.48193 11.7603 9.63219 11.6197C9.78245 11.479 9.98624 11.4 10.1987 11.4H11.8012C12.0137 11.4 12.2175 11.479 12.3678 11.6197C12.518 11.7603 12.6024 11.9511 12.6024 12.15V13.65C12.6024 13.8489 12.6869 14.0397 12.8371 14.1804C12.9874 14.321 13.1912 14.4 13.4037 14.4H15.0061C15.2186 14.4 15.4224 14.321 15.5727 14.1804C15.7229 14.0397 15.8074 13.8489 15.8074 13.65V8.71045L16.0421 8.9302C16.1932 9.06682 16.3956 9.14242 16.6057 9.14071C16.8158 9.139 17.0167 9.06012 17.1653 8.92107C17.3139 8.78201 17.3981 8.59389 17.3999 8.39724C17.4018 8.20059 17.321 8.01114 17.1751 7.86969L11.5664 2.61962Z" fill="white"/>
</g>
<defs>
<filter id="filter0_d_403_518" x="-1" y="0" width="24" height="24" filterUnits="userSpaceOnUse" color-interpolation-filters="sRGB">
<feFlood flood-opacity="0" result="BackgroundImageFix"/>
<feColorMatrix in="SourceAlpha" type="matrix" values="0 0 0 0 0 0 0 0 0 0 0 0 0 0 0 0 0 0 127 0" result="hardAlpha"/>
<feOffset dy="4"/>
<feGaussianBlur stdDeviation="2"/>
<feComposite in2="hardAlpha" operator="out"/>
<feColorMatrix type="matrix" values="0 0 0 0 0 0 0 0 0 0 0 0 0 0 0 0 0 0 0.25 0"/>
<feBlend mode="normal" in2="BackgroundImageFix" result="effect1_dropShadow_403_518"/>
<feBlend mode="normal" in="SourceGraphic" in2="effect1_dropShadow_403_518" result="shape"/>
</filter>
</defs>
</svg>
